:version 1.10
:name ASF
:units
  mass 1
  length 1
  angle deg
:documentation
  ASF file generated by Kaydara
:root
  axis xyz
  order  tx ty tz rx ry rz
  position 0 0 0
  orientation 0 0 0
:bonedata
  begin
    id 1
    name SpineDummy
    direction 0.999998 -0.00179978 1.38929e-006
    length 3.60008
    axis 0 0 0 xyz
  end
  begin
    id 2
    name Spine
    direction 0.964365 0.262802 0.0305839
    length 8.13928
    axis 1.33928 -1.75354 15.2838 xyz
    dof rx ry rz
  end
  begin
    id 3
    name Spine1
    direction 0.811168 0.572065 0.12144
    length 7.14954
    axis 2.2224 -6.9761 35.2157 xyz
    dof rx ry rz
  end
  begin
    id 4
    name Neck
    direction 0 0 0
    length 0
    axis 2.2224 -6.9761 35.2157 xyz
    dof rx ry rz
  end
  begin
    id 5
    name HeadDummy
    direction 0.810939 0.572387 0.121455
    length 3.55534
    axis 2.2224 -6.9761 35.2157 xyz
  end
  begin
    id 6
    name Head
    direction 0.998226 -0.000232542 0.0595419
    length 7.35666
    axis -3.03688 -3.41352 -0.0133467 xyz
    dof rx ry rz
  end
  begin
    id 7
    name R_ClavicleDummy
    direction 0.531669 -0.194489 -0.824319
    length 2.49392
    axis 2.2224 -6.9761 35.2157 xyz
  end
  begin
    id 8
    name R_Clavicle
    direction -0.155119 0.0480802 -0.986725
    length 4.485
    axis -54.2764 80.6538 162.779 xyz
    dof rx ry rz
  end
  begin
    id 9
    name R_UpperArm
    direction -0.955567 0.200068 -0.216484
    length 10.1122
    axis -72.9943 12.5026 168.175 xyz
    dof rx ry rz
  end
  begin
    id 10
    name R_Forearm
    direction -0.61433 0.385743 0.688332
    length 9.39148
    axis -117.015 -43.4982 147.875 xyz
    dof rx ry rz
  end
  begin
    id 11
    name R_Hand
    direction -0.699429 0.0170333 0.714499
    length 3.66324
    axis -45.0303 -36.7097 175.478 xyz
    dof rx ry rz
  end
  begin
    id 12
    name L_ClavicleDummy
    direction 0.40287 -0.36502 0.839319
    length 2.49392
    axis 2.2224 -6.9761 35.2157 xyz
  end
  begin
    id 13
    name L_Clavicle
    direction -0.231271 -0.0726419 0.970174
    length 4.485
    axis 18.4357 -75.9711 -162.563 xyz
    dof rx ry rz
  end
  begin
    id 14
    name L_UpperArm
    direction -0.917494 0.144359 0.370629
    length 10.1122
    axis 56.0417 -21.7544 171.058 xyz
    dof rx ry rz
  end
  begin
    id 15
    name L_Forearm
    direction -0.496786 0.615074 -0.612281
    length 9.39148
    axis 89.8094 37.7546 128.927 xyz
    dof rx ry rz
  end
  begin
    id 16
    name L_Hand
    direction -0.409932 0.64962 -0.640274
    length 3.66324
    axis -0.424369 32.133 128.52 xyz
    dof rx ry rz
  end
  begin
    id 17
    name L_ThighDummy
    direction -1.84081e-006 1.87549e-006 1
    length 3.13049
    axis 0 0 0 xyz
  end
  begin
    id 18
    name L_Thigh
    direction -0.947739 0.307978 0.083308
    length 17.9961
    axis 173.219 -4.77873 161.998 xyz
    dof rx ry rz
  end
  begin
    id 19
    name L_Calf
    direction -0.728814 -0.684427 0.0197583
    length 13.3367
    axis 167.331 -1.13214 -136.799 xyz
    dof rx ry rz
  end
  begin
    id 20
    name L_Foot
    direction -0.9028 0.418719 0.0981191
    length 5.8674
    axis 163.436 11.5135 -155.37 xyz
    dof rx ry rz
  end
  begin
    id 21
    name L_Toe0
    direction -0.35341 0.886259 0.299411
    length 4.75286
    axis 169.316 -17.4222 111.74 xyz
    dof rx ry rz
  end
  begin
    id 22
    name R_ThighDummy
    direction 9.32778e-007 -8.82053e-007 -1
    length 3.13049
    axis 0 0 0 xyz
  end
  begin
    id 23
    name R_Thigh
    direction -0.925064 0.37528 -0.0585023
    length 17.9961
    axis -178.698 3.35385 157.919 xyz
    dof rx ry rz
  end
  begin
    id 24
    name R_Calf
    direction -0.68969 -0.718776 -0.0876886
    length 13.3367
    axis -160.504 5.03065 -133.817 xyz
    dof rx ry rz
  end
  begin
    id 25
    name R_Foot
    direction -0.857405 0.418858 -0.299022
    length 5.8674
    axis -161.328 4.38911 -154.413 xyz
    dof rx ry rz
  end
  begin
    id 26
    name R_Toe0
    direction -0.100745 0.952789 -0.286433
    length 4.75286
    axis 171.683 16.6445 96.0359 xyz
    dof rx ry rz
  end
:hierarchy
  begin
    root SpineDummy L_ThighDummy R_ThighDummy
    SpineDummy Spine
    Spine Spine1
    Spine1 Neck
    Neck HeadDummy R_ClavicleDummy L_ClavicleDummy
    HeadDummy Head
    R_ClavicleDummy R_Clavicle
    R_Clavicle R_UpperArm
    R_UpperArm R_Forearm
    R_Forearm R_Hand
    L_ClavicleDummy L_Clavicle
    L_Clavicle L_UpperArm
    L_UpperArm L_Forearm
    L_Forearm L_Hand
    L_ThighDummy L_Thigh
    L_Thigh L_Calf
    L_Calf L_Foot
    L_Foot L_Toe0
    R_ThighDummy R_Thigh
    R_Thigh R_Calf
    R_Calf R_Foot
    R_Foot R_Toe0
  end

:SAMPLES-PER-SECOND 30
:FULLY-SPECIFIED
:DEGREES
64
root  -12.2244 31.9639 -0.784863 -122.28 -9.83161 76.0601
Spine  -0.861993 -1.31502 0.659751
Spine1  -0.914941 0.679983 -11.7054
Neck  3.97569e-016 0 -2.38542e-015
Head  17.8012 -10.0758 14.8612
R_Clavicle  0.285573 -14.6819 0.172403
R_UpperArm  27.3647 -2.75834 34.611
R_Forearm  -14.8039 -47.0358 25.1418
R_Hand  -0.191054 7.47892 -12.3603
L_Clavicle  -0.368781 13.1447 -0.0552175
L_UpperArm  4.77222 8.01872 12.3601
L_Forearm  -2.02616 17.6403 21.5378
L_Hand  -0.157244 6.22646 -1.33161
L_Thigh  -2.94586 -7.26841 9.38511
L_Calf  -0.525451 -10.9399 34.5408
L_Foot  -1.70056 -3.98245 -4.16226
L_Toe0  0.505156 0.034446 -6.1361
R_Thigh  2.88834 -1.8437 -7.37171
R_Calf  9.15695 3.44288 10.6995
R_Foot  -1.51149 -2.12347 6.57684
R_Toe0  0.332967 -0.126469 -0.690658
65
root  -12.5892 31.201 0.235666 -118.664 -9.80228 74.2632
Spine  -2.34529 -2.97443 0.636162
Spine1  -2.11631 1.60855 -9.66885
Neck  3.97569e-016 0 -2.38542e-015
Head  18.1914 -9.52884 10.1842
R_Clavicle  0.354103 -17.9424 0.430842
R_UpperArm  30.8532 -3.17609 39.3701
R_Forearm  -9.56227 -45.425 25.4417
R_Hand  -0.376965 7.6765 -13.9418
L_Clavicle  -0.434732 15.3334 0.343077
L_UpperArm  5.08119 3.72803 10.085
L_Forearm  -3.49625 15.6078 18.8126
L_Hand  -0.303459 5.64043 -2.89356
L_Thigh  -5.89817 -4.04786 8.94246
L_Calf  -4.09452 -10.0559 33.2024
L_Foot  -0.575994 0.973663 -3.90547
L_Toe0  0.505156 0.034446 -6.1361
R_Thigh  4.93815 -2.63405 -4.17669
R_Calf  11.6496 2.29135 7.11013
R_Foot  -2.49736 -2.24726 13.0603
R_Toe0  1.48015 -0.421229 -7.58127
66
root  -12.8146 30.2801 1.19939 -116.889 -9.39053 74.0064
Spine  -3.4019 -3.91257 0.118931
Spine1  -3.02237 2.5352 -7.1282
Neck  3.97569e-016 0 -2.38542e-015
Head  20.1545 -8.33974 4.3472
R_Clavicle  0.390175 -19.4396 0.906793
R_UpperArm  33.9841 -4.85959 41.986
R_Forearm  -0.828884 -42.5503 24.8182
R_Hand  -0.672351 8.04965 -16.396
L_Clavicle  -0.472748 16.8313 0.490999
L_UpperArm  4.40952 0.285873 8.08168
L_Forearm  -3.66401 14.1062 16.862
L_Hand  -0.427934 4.18768 -4.83573
L_Thigh  -11.493 1.32003 7.81383
L_Calf  0.830159 -5.93128 29.0938
L_Foot  -0.0605177 3.02508 -3.56953
L_Toe0  0.505156 0.034446 -6.1361
R_Thigh  7.73139 -2.19663 -0.97999
R_Calf  13.8064 1.06837 3.32679
R_Foot  -4.10106 -3.49514 19.7049
R_Toe0  2.63572 -0.473045 -13.6794
67
root  -12.9057 29.4465 2.02236 -116.732 -9.25224 75.0758
Spine  -4.30789 -5.0329 -0.205465
Spine1  -3.81204 3.81067 -4.94818
Neck  3.97569e-016 0 -2.38542e-015
Head  22.7862 -5.72304 -0.548866
R_Clavicle  0.401597 -19.7892 1.22545
R_UpperArm  30.7017 -7.52654 43.5323
R_Forearm  14.1465 -36.4575 22.5735
R_Hand  -0.99745 8.46554 -18.9417
L_Clavicle  -0.480798 17.1934 0.598986
L_UpperArm  2.69489 -1.27055 7.03867
L_Forearm  -3.18018 12.838 15.2504
L_Hand  -0.468341 2.72963 -6.32124
L_Thigh  -10.2474 7.39578 4.99503
L_Calf  2.21518 -2.87708 23.2981
L_Foot  0.660556 4.49937 -1.87088
L_Toe0  0.505156 0.034446 -6.1361
R_Thigh  9.89265 -0.641901 0.890071
R_Calf  15.66 0.186746 0.619777
R_Foot  -5.78347 -4.84408 25.312
R_Toe0  0.629533 -0.286966 -16.0925
68
root  -12.9187 29.0526 2.68953 -116.861 -9.40674 76.5626
Spine  -5.68239 -6.81865 -0.446228
Spine1  -5.01948 5.62098 -3.5945
Neck  3.97569e-016 0 -2.38542e-015
Head  25.1695 -2.11097 -2.22573
R_Clavicle  0.402912 -19.8125 1.27213
R_UpperArm  17.8938 -10.3318 45.0881
R_Forearm  32.05 -25.4411 19.7787
R_Hand  -1.17165 8.22068 -20.2381
L_Clavicle  -0.480798 17.2072 0.631132
L_UpperArm  1.18167 -1.25251 7.62809
L_Forearm  -4.03898 11.6377 13.7512
L_Hand  -0.47664 2.18396 -6.89856
L_Thigh  -3.46756 11.9619 0.449878
L_Calf  -1.48837 -2.20637 16.3459
L_Foot  1.3701 6.36262 -0.747108
L_Toe0  0.505156 0.034446 -6.1361
R_Thigh  11.1747 1.10581 1.24941
R_Calf  15.9637 0.0221794 0.13075
R_Foot  -6.53165 -5.49596 27.2592
R_Toe0  -0.861739 -0.262718 -16.7958
69
root  -12.9186 29.3164 3.25654 -116.1 -9.36748 77.6761
Spine  -7.71108 -9.03422 -1.03887
Spine1  -6.85135 7.86833 -3.22477
Neck  3.97569e-016 0 -2.38542e-015
Head  27.3326 0.673353 -0.670632
R_Clavicle  0.406313 -19.7286 1.44883
R_UpperArm  13.8027 -12.6564 46.8599
R_Forearm  33.8652 -15.6013 13.7147
R_Hand  -1.00214 7.21014 -18.8291
L_Clavicle  -0.493668 17.7057 0.564989
L_UpperArm  1.81885 -0.630672 9.32313
L_Forearm  -6.17479 10.5965 12.4692
L_Hand  -0.487455 2.53181 -6.73891
L_Thigh  3.78052 13.1178 -4.68376
L_Calf  -3.7519 -1.22137 8.8509
L_Foot  1.57086 6.77047 -0.352407
L_Toe0  0.505156 0.034446 -6.1361
R_Thigh  12.0632 2.27855 0.688257
R_Calf  15.3838 0.843786 2.69352
R_Foot  -6.66145 -6.54946 25.0908
R_Toe0  -0.882026 -0.264112 -16.8075
70
root  -12.964 30.1866 3.83629 -114.85 -8.53488 78.3712
Spine  -9.71091 -11.0009 -2.22276
Spine1  -8.72909 10.0255 -3.8072
Neck  3.97569e-016 0 -2.38542e-015
Head  29.0918 1.59528 2.40033
R_Clavicle  0.418747 -19.4435 2.00272
R_UpperArm  12.7249 -14.7416 48.4376
R_Forearm  28.0236 -6.6985 5.57254
R_Hand  -0.611214 5.73327 -15.0125
L_Clavicle  -0.511337 18.4016 0.530357
L_UpperArm  4.72851 0.364397 10.8423
L_Forearm  -7.18726 9.72935 11.4132
L_Hand  -0.436849 3.49112 -5.33269
L_Thigh  9.58844 11.4255 -9.27614
L_Calf  -2.02974 -0.246611 1.60294
L_Foot  1.88861 6.51831 1.09896
L_Toe0  0.505156 0.034446 -6.1361
R_Thigh  13.0265 3.05879 -0.126663
R_Calf  14.9812 2.66909 8.40895
R_Foot  -7.14198 -9.71161 20.0971
R_Toe0  0.107249 -0.290184 -16.4991
71
root  -13.0358 31.5125 4.56345 -114.534 -6.74437 78.9378
Spine  -10.7636 -12.2764 -3.94489
Spine1  -9.83913 11.3824 -5.1755
Neck  3.97569e-016 0 -2.38542e-015
Head  29.657 1.48072 5.84036
R_Clavicle  0.433156 -19.061 2.50787
R_UpperArm  11.2535 -17.0406 49.5567
R_Forearm  22.9956 1.4997 -1.27324
R_Hand  -0.294519 4.46934 -11.0958
L_Clavicle  -0.511913 18.4448 0.551551
L_UpperArm  7.94105 2.3534 11.5343
L_Forearm  -6.07944 8.80111 10.2928
L_Hand  -0.224117 5.1254 -2.17853
L_Thigh  10.4951 8.89611 -12.7424
L_Calf  2.09437 0.369652 -2.94683
L_Foot  2.19058 6.147 2.6442
L_Toe0  0.505156 0.034446 -6.1361
R_Thigh  14.1299 3.80749 -0.92189
R_Calf  11.7886 5.3586 16.9923
R_Foot  -6.52772 -14.0421 10.1278
R_Toe0  1.64434 -0.31651 -13.2396
72
root  -13.0941 33.0986 5.46205 -115.566 -4.34909 79.5105
Spine  -10.6451 -12.8543 -6.02563
Spine1  -9.98646 11.9053 -6.83551
Neck  3.97569e-016 0 -2.38542e-015
Head  28.8234 1.5728 9.37897
R_Clavicle  0.433147 -18.8916 2.49072
R_UpperArm  10.41 -19.1432 50.2366
R_Forearm  20.9165 7.9583 -6.69684
R_Hand  -0.145648 4.20503 -9.35291
L_Clavicle  -0.494141 17.6773 0.490973
L_UpperArm  10.1069 5.31408 11.6605
L_Forearm  -5.14645 7.61573 8.8753
L_Hand  0.120788 6.96466 1.28643
L_Thigh  6.74248 6.68024 -14.9453
L_Calf  5.19248 0.370499 -3.00333
L_Foot  1.44898 3.6977 2.26293
L_Toe0  0.505156 0.034446 -6.1361
R_Thigh  15.8942 4.32957 -1.91229
R_Calf  2.87127 8.46805 27.6423
R_Foot  -2.73083 -14.4701 -6.05087
R_Toe0  -3.02481 0.289339 -5.75275
73
root  -13.1972 34.5519 6.44492 -116.683 -1.86491 80.1098
Spine  -9.97941 -12.9289 -8.44544
Spine1  -9.60828 12.2095 -7.6692
Neck  3.97569e-016 0 -2.38542e-015
Head  27.2905 2.09874 12.223
R_Clavicle  0.420825 -18.9124 2.09301
R_UpperArm  9.89288 -20.2988 50.1504
R_Forearm  19.9183 12.9759 -11.0639
R_Hand  -0.165227 4.56343 -9.91991
L_Clavicle  -0.465497 16.4842 0.260977
L_UpperArm  11.6547 8.16923 11.3674
L_Forearm  -6.56782 6.13117 7.11799
L_Hand  0.331927 8.09024 2.9795
L_Thigh  1.6435 4.76954 -16.0698
L_Calf  6.44852 -0.0652628 0.135872
L_Foot  0.150056 0.113306 0.591262
L_Toe0  0.505156 0.034446 -6.1361
R_Thigh  17.6856 3.8045 -2.08876
R_Calf  -7.9064 10.8999 35.5532
R_Foot  1.60048 -3.61848 -19.7074
R_Toe0  -13.2122 1.90872 -8.08797
74
root  -13.3552 35.557 7.42014 -116.685 0.237412 80.792
Spine  -9.41345 -12.5587 -11.0247
Spine1  -9.21354 12.3263 -7.10747
Neck  3.97569e-016 0 -2.38542e-015
Head  25.7116 2.58673 13.4943
R_Clavicle  0.406108 -18.5215 1.66982
R_UpperArm  9.7416 -20.7371 48.6544
R_Forearm  17.7831 17.155 -14.8867
R_Hand  -0.230663 4.78238 -10.7614
L_Clavicle  -0.424031 15.0527 -0.111559
L_UpperArm  12.981 10.1921 10.4468
L_Forearm  -9.16872 4.38506 5.0715
L_Hand  0.329298 8.78517 2.84459
L_Thigh  -2.25483 2.87598 -16.5566
L_Calf  7.14606 -0.624234 4.1972
L_Foot  -0.753599 -1.48515 -2.02366
L_Toe0  0.505156 0.034446 -6.1361
R_Thigh  14.5527 2.03647 -1.33034
R_Calf  -11.5145 13.2376 39.3057
R_Foot  3.69299 11.8976 -29.0166
R_Toe0  -13.3851 2.33186 -6.54542
75
root  -13.5117 36.1241 8.38027 -115.686 1.95403 82.0763
Spine  -9.07277 -11.0177 -12.9564
Spine1  -9.01201 11.8112 -6.19307
Neck  3.97569e-016 0 -2.38542e-015
Head  24.1784 2.7796 13.5766
R_Clavicle  0.379917 -17.1023 1.24383
R_UpperArm  10.0393 -21.3727 45.6409
R_Forearm  15.4794 20.5807 -18.2025
R_Hand  -0.22696 4.92041 -10.8447
L_Clavicle  -0.367357 13.505 -0.567216
L_UpperArm  13.6417 11.723 9.03059
L_Forearm  -10.9516 2.44738 2.81871
L_Hand  0.306536 9.55698 2.54893
L_Thigh  -5.03992 1.54931 -16.8574
L_Calf  7.45601 -1.17404 8.23759
L_Foot  -1.37393 -1.32317 -5.56075
L_Toe0  0.505156 0.034446 -6.1361
R_Thigh  9.50903 1.71816 -1.4248
R_Calf  -7.8474 13.6906 40.8325
R_Foot  3.48858 11.3264 -28.293
R_Toe0  -6.79506 0.328278 -12.7163
